<?xml version="1.0" encoding="UTF-8" standalone="no"?>
<svg
   width="64"
   height="64"
   viewBox="0 0 64 64"
   fill="none"
   version="1.1"
   id="svg4"
   sodipodi:docname="EURC.svg"
   inkscape:version="1.3.2 (091e20e, 2023-11-25)"
   xmlns:inkscape="http://www.inkscape.org/namespaces/inkscape"
   xmlns:sodipodi="http://sodipodi.sourceforge.net/DTD/sodipodi-0.dtd"
   xmlns="http://www.w3.org/2000/svg"
   xmlns:svg="http://www.w3.org/2000/svg">
  <sodipodi:namedview
     id="namedview4"
     pagecolor="#ffffff"
     bordercolor="#000000"
     borderopacity="0.25"
     inkscape:showpageshadow="2"
     inkscape:pageopacity="0.0"
     inkscape:pagecheckerboard="0"
     inkscape:deskcolor="#d1d1d1"
     showguides="false"
     inkscape:zoom="1.0535714"
     inkscape:cx="111.52542"
     inkscape:cy="111.52542"
     inkscape:window-width="1440"
     inkscape:window-height="900"
     inkscape:window-x="0"
     inkscape:window-y="0"
     inkscape:window-maximized="0"
     inkscape:current-layer="svg4" />
  <g
     clip-path="url(#clip0_1176_2535)"
     id="g4"
     transform="scale(0.28625613)">
    <path
       fill-rule="evenodd"
       clip-rule="evenodd"
       d="m 111.788,0 c 61.739,0 111.788,50.0491 111.788,111.788 0,61.739 -50.049,111.788 -111.788,111.788 C 50.0491,223.576 0,173.527 0,111.788 0,50.0491 50.0491,0 111.788,0 Z"
       fill="#2775ca"
       id="path1" />
    <path
       fill-rule="evenodd"
       clip-rule="evenodd"
       d="m 137.331,33.0735 c -2.521,-0.8053 -4.582,0.6909 -4.582,3.3375 v 6.5087 c 0,1.7745 1.337,3.7942 3.003,4.4048 26.757,9.8001 45.904,35.5184 45.904,65.6285 0,30.11 -19.147,55.827 -45.904,65.628 -1.827,0.669 -3.003,2.459 -3.003,4.405 v 6.508 c 0,2.647 2.061,4.143 4.582,3.338 33.813,-10.804 58.298,-42.482 58.298,-79.879 0,-37.3974 -24.485,-69.0759 -58.298,-79.8795 z"
       fill="#ffffff"
       id="path2" />
    <path
       fill-rule="evenodd"
       clip-rule="evenodd"
       d="m 90.828,36.411 c 0,-2.6466 -2.0612,-4.1428 -4.582,-3.3375 -33.8139,10.8036 -58.299,42.4817 -58.299,79.8795 0,37.398 24.4851,69.075 58.299,79.879 2.5207,0.805 4.582,-0.691 4.582,-3.338 v -6.508 c 0,-1.775 -1.3375,-3.795 -3.0038,-4.405 -26.7564,-9.801 -45.9037,-35.519 -45.9037,-65.628 0,-30.1097 19.1473,-55.8284 45.9037,-65.6285 1.6663,-0.6106 3.0038,-2.6303 3.0038,-4.4049 z"
       fill="#ffffff"
       id="path3" />
    <path
       d="m 140.376,134.769 -6.395,-2.857 c -1.408,-0.629 -3.068,-0.041 -3.75,1.343 -3.018,6.125 -8.034,10.029 -14.661,10.029 -5.999,0 -10.811,-2.938 -14.499,-8.875 -1.4415,-2.297 -2.5869,-4.861 -3.4592,-7.67 h 17.1722 c 1.088,0 2.084,-0.613 2.575,-1.585 l 4.097,-5.53 c 0.969,-1.919 -0.425,-4.185 -2.574,-4.185 H 95.6795 c -0.0673,-1.19 -0.1078,-2.403 -0.1078,-3.653 -0.0128,-1.239 0.022,-2.453 0.0866,-3.649 h 19.1257 c 1.088,0 2.084,-0.612 2.575,-1.584 l 4.097,-5.53 c 0.969,-1.919 -0.425,-4.1854 -2.574,-4.1854 H 97.5908 c 3.1142,-10.1529 9.6152,-16.8047 17.9792,-16.674 6.374,0 11.322,3.4895 14.496,9.2044 0.711,1.281 2.312,1.7719 3.652,1.1802 l 6.428,-2.8376 c 1.538,-0.679 2.192,-2.5388 1.378,-4.0097 -5.934,-10.7161 -14.585,-16.0988 -25.954,-16.0988 -10.374,0 -18.6861,4.1246 -24.9982,12.3116 -3.6891,4.8218 -6.2572,10.4794 -7.7812,16.9239 h -9.3373 c -1.0885,0 -2.0843,0.6126 -2.5749,1.5842 l -4.0977,5.5302 c -0.9691,1.919 0.4254,4.185 2.5749,4.185 h 11.8922 c -0.0574,1.201 -0.1123,2.404 -0.1123,3.649 -0.0152,1.234 0.0139,2.449 0.0661,3.653 h -7.7483 c -1.0885,0 -2.0843,0.613 -2.5749,1.584 l -4.0977,5.53 c -0.9691,1.919 0.4254,4.186 2.5749,4.186 h 13.4078 c 4.2404,17.526 16.4481,29.478 32.8066,29.231 11.615,0 20.369,-5.774 26.213,-17.271 0.744,-1.464 0.092,-3.26 -1.407,-3.93 z"
       fill="#ffffff"
       id="path4" />
  </g>
  <defs
     id="defs4">
    <clipPath
       id="clip0_1176_2535">
      <rect
         width="223.576"
         height="223.576"
         fill="#ffffff"
         id="rect4"
         x="0"
         y="0" />
    </clipPath>
  </defs>
</svg>
