<?xml version="1.0" encoding="UTF-8" standalone="no"?>
<!-- Generator: Adobe Illustrator 24.0.0, SVG Export Plug-In . SVG Version: 6.00 Build 0)  -->

<svg
   version="1.1"
   id="Layer_1"
   x="0px"
   y="0px"
   viewBox="0 0 63.999997 64"
   xml:space="preserve"
   sodipodi:docname="MATIC.svg"
   width="64"
   height="64"
   inkscape:version="1.3.2 (091e20e, 2023-11-25)"
   xmlns:inkscape="http://www.inkscape.org/namespaces/inkscape"
   xmlns:sodipodi="http://sodipodi.sourceforge.net/DTD/sodipodi-0.dtd"
   xmlns="http://www.w3.org/2000/svg"
   xmlns:svg="http://www.w3.org/2000/svg"><defs
   id="defs1" /><sodipodi:namedview
   id="namedview1"
   pagecolor="#ffffff"
   bordercolor="#000000"
   borderopacity="0.25"
   inkscape:showpageshadow="2"
   inkscape:pageopacity="0.0"
   inkscape:pagecheckerboard="0"
   inkscape:deskcolor="#d1d1d1"
   inkscape:zoom="7.0447761"
   inkscape:cx="19.23411"
   inkscape:cy="16.679025"
   inkscape:window-width="1440"
   inkscape:window-height="900"
   inkscape:window-x="0"
   inkscape:window-y="0"
   inkscape:window-maximized="0"
   inkscape:current-layer="Layer_1" />
<style
   type="text/css"
   id="style1">
	.st0{fill:#8247E5;}
</style>
<g
   id="g1"
   transform="matrix(1.6710183,0,0,1.6710183,0,4.0106018)">
	<path
   class="st0"
   d="m 29,10.2 c -0.7,-0.4 -1.6,-0.4 -2.4,0 l -5.6,3.3 -3.8,2.1 -5.5,3.3 c -0.7,0.4 -1.6,0.4 -2.4,0 L 5,16.3 C 4.3,15.9 3.8,15.1 3.8,14.2 v -5 C 3.8,8.4 4.2,7.6 5,7.1 L 9.3,4.6 c 0.7,-0.4 1.6,-0.4 2.4,0 L 16,7.2 c 0.7,0.4 1.2,1.2 1.2,2.1 v 3.3 L 21,10.4 V 7 C 21,6.2 20.6,5.4 19.8,4.9 l -8,-4.7 c -0.7,-0.4 -1.6,-0.4 -2.4,0 L 1.2,5 C 0.4,5.4 0,6.2 0,7 v 9.4 c 0,0.8 0.4,1.6 1.2,2.1 l 8.1,4.7 c 0.7,0.4 1.6,0.4 2.4,0 L 17.2,20 21,17.8 26.5,14.6 c 0.7,-0.4 1.6,-0.4 2.4,0 l 4.3,2.5 c 0.7,0.4 1.2,1.2 1.2,2.1 v 5 c 0,0.8 -0.4,1.6 -1.2,2.1 L 29,28.8 c -0.7,0.4 -1.6,0.4 -2.4,0 L 22.3,26.3 C 21.6,25.9 21.1,25.1 21.1,24.2 V 21 l -3.8,2.2 v 3.3 c 0,0.8 0.4,1.6 1.2,2.1 l 8.1,4.7 c 0.7,0.4 1.6,0.4 2.4,0 l 8.1,-4.7 c 0.7,-0.4 1.2,-1.2 1.2,-2.1 V 17 c 0,-0.8 -0.4,-1.6 -1.2,-2.1 z"
   id="path1" />
</g>
</svg>
