<?xml version="1.0" encoding="UTF-8" standalone="no"?>
<!-- Generator: Adobe Illustrator 26.0.1, SVG Export Plug-In . SVG Version: 6.00 Build 0)  -->

<svg
   version="1.1"
   id="Layer_1"
   x="0px"
   y="0px"
   viewBox="0 0 64 64"
   xml:space="preserve"
   sodipodi:docname="OP.svg"
   width="64"
   height="64"
   inkscape:version="1.3.2 (091e20e, 2023-11-25)"
   xmlns:inkscape="http://www.inkscape.org/namespaces/inkscape"
   xmlns:sodipodi="http://sodipodi.sourceforge.net/DTD/sodipodi-0.dtd"
   xmlns="http://www.w3.org/2000/svg"
   xmlns:svg="http://www.w3.org/2000/svg"><defs
   id="defs2" /><sodipodi:namedview
   id="namedview2"
   pagecolor="#ffffff"
   bordercolor="#000000"
   borderopacity="0.25"
   inkscape:showpageshadow="2"
   inkscape:pageopacity="0.0"
   inkscape:pagecheckerboard="0"
   inkscape:deskcolor="#d1d1d1"
   inkscape:zoom="0.472"
   inkscape:cx="248.94068"
   inkscape:cy="248.94068"
   inkscape:window-width="1440"
   inkscape:window-height="900"
   inkscape:window-x="0"
   inkscape:window-y="0"
   inkscape:window-maximized="0"
   inkscape:current-layer="Layer_1" />
<style
   type="text/css"
   id="style1">
	.st0{fill:#FF0420;}
	.st1{fill:#FFFFFF;}
</style>


<g
   id="g2"
   transform="scale(0.128)"><circle
     class="st0"
     cx="250"
     cy="250"
     r="250"
     id="circle1" /><path
     class="st1"
     d="m 177.1,316.4 c -14.9,0 -27.1,-3.5 -36.6,-10.5 -9.4,-7.1 -14.1,-17.3 -14.1,-30.4 0,-2.8 0.3,-6.1 0.9,-10.1 1.6,-9 3.9,-19.8 6.9,-32.5 8.5,-34.4 30.5,-51.6 65.9,-51.6 9.6,0 18.3,1.6 25.9,4.9 7.6,3.1 13.6,7.9 18,14.3 4.4,6.3 6.6,13.8 6.6,22.5 0,2.6 -0.3,5.9 -0.9,9.9 -1.9,11.1 -4.1,22 -6.8,32.5 -4.4,17.1 -11.9,30 -22.7,38.5 -10.7,8.4 -25.1,12.5 -43.1,12.5 z m 2.7,-27 c 7,0 12.9,-2.1 17.8,-6.2 5,-4.1 8.6,-10.4 10.7,-19 2.9,-11.8 5.1,-22 6.6,-30.8 0.5,-2.6 0.8,-5.3 0.8,-8.1 0,-11.4 -5.9,-17.1 -17.8,-17.1 -7,0 -13,2.1 -18,6.2 -4.9,4.1 -8.4,10.4 -10.5,19 -2.3,8.4 -4.5,18.6 -6.8,30.8 -0.5,2.5 -0.8,5.1 -0.8,7.9 -0.1,11.6 6,17.3 18,17.3 z"
     id="path1" /><path
     class="st1"
     d="m 259.3,314.6 c -1.4,0 -2.4,-0.4 -3.2,-1.3 -0.6,-1 -0.8,-2.1 -0.6,-3.4 l 25.9,-122 c 0.2,-1.4 0.9,-2.5 2.1,-3.4 1.1,-0.9 2.3,-1.3 3.6,-1.3 H 337 c 13.9,0 25,2.9 33.4,8.6 8.5,5.8 12.8,14.1 12.8,25 0,3.1 -0.4,6.4 -1.1,9.8 -3.1,14.4 -9.4,25 -19,31.9 -9.4,6.9 -22.3,10.3 -38.7,10.3 h -25.3 l -8.6,41.1 c -0.3,1.4 -0.9,2.5 -2.1,3.4 -1.1,0.9 -2.3,1.3 -3.6,1.3 z m 66.4,-71.7 c 5.3,0 9.8,-1.4 13.7,-4.3 4,-2.9 6.6,-7 7.9,-12.4 0.4,-2.1 0.6,-4 0.6,-5.6 0,-3.6 -1.1,-6.4 -3.2,-8.3 -2.1,-2 -5.8,-3 -10.9,-3 h -22.5 l -7.1,33.6 z"
     id="path2" /></g>
</svg>
