<?xml version="1.0" encoding="UTF-8" standalone="no"?>
<svg
   id="Layer_1"
   data-name="Layer 1"
   viewBox="0 0 64.000001 64.000002"
   version="1.1"
   sodipodi:docname="USDT.svg"
   width="64"
   height="64"
   inkscape:version="1.3.2 (091e20e, 2023-11-25)"
   xmlns:inkscape="http://www.inkscape.org/namespaces/inkscape"
   xmlns:sodipodi="http://sodipodi.sourceforge.net/DTD/sodipodi-0.dtd"
   xmlns="http://www.w3.org/2000/svg"
   xmlns:svg="http://www.w3.org/2000/svg"
   xmlns:rdf="http://www.w3.org/1999/02/22-rdf-syntax-ns#"
   xmlns:cc="http://creativecommons.org/ns#"
   xmlns:dc="http://purl.org/dc/elements/1.1/">
  <defs
     id="defs2" />
  <sodipodi:namedview
     id="namedview2"
     pagecolor="#ffffff"
     bordercolor="#000000"
     borderopacity="0.25"
     inkscape:showpageshadow="2"
     inkscape:pageopacity="0.0"
     inkscape:pagecheckerboard="0"
     inkscape:deskcolor="#d1d1d1"
     inkscape:zoom="3.2638054"
     inkscape:cx="42.741518"
     inkscape:cy="46.111817"
     inkscape:window-width="1440"
     inkscape:window-height="900"
     inkscape:window-x="0"
     inkscape:window-y="0"
     inkscape:window-maximized="0"
     inkscape:current-layer="Layer_1" />
  <title
     id="title1">tether-usdt-logo</title>
  <g
     id="g2"
     transform="matrix(0.18855757,0,0,0.18855757,0.00451064,4.1625365)">
    <path
       d="m 62.15,1.45 -61.89,130 a 2.52,2.52 0 0 0 0.54,2.94 l 167.15,160.17 a 2.55,2.55 0 0 0 3.53,0 L 338.63,134.4 a 2.52,2.52 0 0 0 0.54,-2.94 L 277.28,1.46 A 2.5,2.5 0 0 0 275,0 H 64.45 a 2.5,2.5 0 0 0 -2.3,1.45 z"
       style="fill:#50af95;fill-rule:evenodd"
       id="path1" />
    <path
       d="m 191.19,144.8 v 0 c -1.2,0.09 -7.4,0.46 -21.23,0.46 -11,0 -18.81,-0.33 -21.55,-0.46 v 0 c -42.51,-1.87 -74.24,-9.27 -74.24,-18.13 0,-8.86 31.73,-16.25 74.24,-18.15 v 28.91 c 2.78,0.2 10.74,0.67 21.74,0.67 13.2,0 19.81,-0.55 21,-0.66 v -28.9 c 42.42,1.89 74.08,9.29 74.08,18.13 0,8.84 -31.65,16.24 -74.08,18.12 v 0 z m 0,-39.25 V 79.68 h 59.2 V 40.23 H 89.21 v 39.45 h 59.19 v 25.86 c -48.11,2.21 -84.29,11.74 -84.29,23.16 0,11.42 36.18,20.94 84.29,23.16 v 82.9 h 42.78 v -82.93 c 48,-2.21 84.12,-11.73 84.12,-23.14 0,-11.41 -36.09,-20.93 -84.12,-23.15 v 0 z m 0,0 z"
       style="fill:#ffffff;fill-rule:evenodd"
       id="path2" />
  </g>
  <metadata
     id="metadata2">
    <rdf:RDF>
      <cc:Work
         rdf:about="">
        <dc:title>tether-usdt-logo</dc:title>
      </cc:Work>
    </rdf:RDF>
  </metadata>
</svg>
